# xmcd
#
# Track frame offsets:
#	150
#	10707
#	23598
#	38235
#	48601
#	62667
#	64978
#	80373
#	97790
#	114380
#	129668
#	142806
#	156446
#	165826
#	180522
#	200525
#	210263
#	222535
#	243013
#	261652
#	274531
#
# Disc length: 3851 seconds
#
# Revision: 1
# Processed by: cddbd v1.5.2PL0 Copyright (c) Steve Scherf et al.
# Submitted via: EZCDAudioConverter 1.3.4.1
#
DISCID=1a0f0915
DTITLE=The Three O'Clock - Hidden World Revealed
DYEAR=1900
DGENRE=
TTITLE0=All In Good Time
TTITLE1=With A Cantaloupe Girlfriend
TTITLE2=In Love In Too
TTITLE3=Stupid Einstein
TTITLE4=Lucifer Sam
TTITLE5=Rodney On The ROQ Commercial
TTITLE6=Jet Fighter
TTITLE7=When Lightening Starts [Alternate Version]
TTITLE8=Sound Surrounds [Demo]
TTITLE9=Around The World
TTITLE10=On My Own [With Strings]
TTITLE11=I Go Wild [Alternate Version]
TTITLE12=In My Own Time [Alternate Version]
TTITLE13=Why Cream Curdles In Orange Tea
TTITLE14=A Day In Erotica [Alternate Version]
TTITLE15=Salvation Army - Jennifer Only [Home Demo]
TTITLE16=The Girl With The Guitar (Says Oh Yeah) [Demo]
TTITLE17=Seeing Is Believing
TTITLE18=Regina Caeli
TTITLE19=Feel A Whole Lot Better
TTITLE20=Jet Fighter [Rehearsal]
EXTD=
EXTT0=
EXTT1=
EXTT2=
EXTT3=
EXTT4=
EXTT5=
EXTT6=
EXTT7=
EXTT8=
EXTT9=
EXTT10=
EXTT11=
EXTT12=
EXTT13=
EXTT14=
EXTT15=
EXTT16=
EXTT17=
EXTT18=
EXTT19=
EXTT20=
PLAYORDER=
